<svg width="108" height="34" viewBox="0 0 108 34" fill="none" xmlns="http://www.w3.org/2000/svg">
<path d="M13.156 3.872H12.628C10.0173 3.872 7.97867 4.532 6.512 5.852C5.07467 7.14267 4.356 9.44533 4.356 12.76C4.356 13.8453 4.45867 14.608 4.664 15.048C4.86933 15.4587 4.972 15.6933 4.972 15.752C3.388 15.752 2.2 15.4293 1.408 14.784C0.645333 14.1093 0.264 13.0093 0.264 11.484C0.264 9.40133 0.777333 7.50933 1.804 5.808C2.83067 4.07733 4.45867 2.684 6.688 1.628C8.94667 0.571999 11.8067 0.0439994 15.268 0.0439994C17.204 0.0439994 19.2867 0.219999 21.516 0.571998C23.3933 0.894666 25.0653 1.056 26.532 1.056C28.4093 1.056 30.1107 0.747999 31.636 0.131998C31.5773 2.03866 31.0933 3.44667 30.184 4.356C29.2747 5.26533 27.9253 5.72 26.136 5.72C25.1973 5.72 24.2587 5.64667 23.32 5.5C22.3813 5.35333 21.0467 5.104 19.316 4.752L13.244 33H6.908L13.156 3.872ZM24.1756 11H30.5116L29.9396 13.728C30.9369 12.848 31.8316 12.1733 32.6236 11.704C33.4449 11.2347 34.3249 11 35.2636 11C36.2023 11 36.9356 11.3227 37.4636 11.968C38.0209 12.6133 38.2996 13.3907 38.2996 14.3C38.2996 15.1507 38.0209 15.8987 37.4636 16.544C36.9063 17.1893 36.1289 17.512 35.1316 17.512C34.4863 17.512 34.0463 17.3653 33.8116 17.072C33.6063 16.7493 33.4449 16.2947 33.3276 15.708C33.2396 15.3267 33.1516 15.048 33.0636 14.872C32.9756 14.696 32.8143 14.608 32.5796 14.608C31.9636 14.608 31.4356 14.74 30.9956 15.004C30.5849 15.2387 30.0423 15.664 29.3676 16.28L25.8476 33H19.5116L24.1756 11ZM43.0066 33.264C41.3346 33.264 39.9412 32.692 38.8266 31.548C37.7119 30.404 37.1546 28.6147 37.1546 26.18C37.1546 24.0093 37.5799 21.736 38.4306 19.36C39.3106 16.9547 40.6012 14.9307 42.3026 13.288C44.0332 11.616 46.0866 10.78 48.4626 10.78C49.6652 10.78 50.5599 10.9853 51.1466 11.396C51.7332 11.8067 52.0266 12.3493 52.0266 13.024V13.332L52.5106 11H58.8466L55.6786 25.96C55.5612 26.4 55.5026 26.8693 55.5026 27.368C55.5026 28.6293 56.1039 29.26 57.3066 29.26C58.1279 29.26 58.8319 28.8787 59.4186 28.116C60.0346 27.3533 60.5186 26.356 60.8706 25.124H62.7186C61.6332 28.292 60.2839 30.448 58.6706 31.592C57.0866 32.7067 55.4879 33.264 53.8746 33.264C52.6426 33.264 51.6452 32.9267 50.8826 32.252C50.1492 31.548 49.7092 30.536 49.5626 29.216C48.7119 30.4187 47.7586 31.4013 46.7026 32.164C45.6759 32.8973 44.4439 33.264 43.0066 33.264ZM45.8666 28.996C46.5999 28.996 47.3186 28.6587 48.0226 27.984C48.7559 27.28 49.2546 26.3267 49.5186 25.124L51.6306 15.18C51.6306 14.7987 51.4839 14.432 51.1906 14.08C50.8972 13.6987 50.4426 13.508 49.8266 13.508C48.6532 13.508 47.5972 14.1973 46.6586 15.576C45.7199 16.9253 44.9866 18.568 44.4586 20.504C43.9306 22.4107 43.6666 24.0973 43.6666 25.564C43.6666 27.0307 43.8719 27.9693 44.2826 28.38C44.7226 28.7907 45.2506 28.996 45.8666 28.996ZM65.9027 33.264C64.2014 33.264 62.8667 32.8387 61.8987 31.988C60.9601 31.108 60.4907 29.8027 60.4907 28.072C60.4907 27.368 60.5641 26.664 60.7107 25.96L63.8787 11H70.2147L67.0467 25.96C66.9001 26.6933 66.8267 27.2213 66.8267 27.544C66.8267 28.512 67.3254 28.996 68.3227 28.996C69.6721 28.996 70.9187 28.1453 72.0627 26.444C73.2361 24.7427 74.1747 22.7187 74.8787 20.372C75.5827 18.0253 75.9347 16.0013 75.9347 14.3C75.8761 14.4467 75.6854 14.564 75.3627 14.652C75.0401 14.7107 74.7614 14.74 74.5267 14.74C74.0281 14.74 73.6321 14.5053 73.3387 14.036C73.0747 13.5667 72.9427 13.0533 72.9427 12.496C72.9427 11.792 73.1627 11.22 73.6027 10.78C74.0721 10.34 74.7614 10.12 75.6707 10.12C76.6387 10.12 77.3427 10.4867 77.7827 11.22C78.2227 11.924 78.4427 12.8333 78.4427 13.948C78.4427 16.588 77.9881 19.4187 77.0787 22.44C76.1694 25.432 74.7761 27.984 72.8987 30.096C71.0214 32.208 68.6894 33.264 65.9027 33.264ZM85.3975 33.264C83.2268 33.264 81.5401 32.7067 80.3375 31.592C79.1348 30.448 78.5335 28.6733 78.5335 26.268C78.5335 24.244 78.9295 22.0147 79.7215 19.58C80.5135 17.1453 81.8041 15.048 83.5935 13.288C85.3828 11.4987 87.6561 10.604 90.4135 10.604C93.6401 10.604 95.2535 12.012 95.2535 14.828C95.2535 16.4707 94.7841 17.9813 93.8455 19.36C92.9068 20.7387 91.6601 21.8533 90.1055 22.704C88.5508 23.5253 86.8935 23.9947 85.1335 24.112C85.0748 24.992 85.0455 25.5787 85.0455 25.872C85.0455 27.3093 85.2948 28.292 85.7935 28.82C86.2921 29.3187 87.0988 29.568 88.2135 29.568C89.7975 29.568 91.1468 29.2013 92.2615 28.468C93.4055 27.7347 94.6521 26.62 96.0015 25.124H97.4975C94.2415 30.5507 90.2081 33.264 85.3975 33.264ZM85.4855 22C86.5708 21.9413 87.5975 21.56 88.5655 20.856C89.5628 20.152 90.3548 19.2573 90.9415 18.172C91.5575 17.0867 91.8655 15.9427 91.8655 14.74C91.8655 13.5373 91.4988 12.936 90.7655 12.936C89.7095 12.936 88.6681 13.86 87.6415 15.708C86.6441 17.556 85.9255 19.6533 85.4855 22ZM100.26 33.264C98.8522 33.264 97.7082 32.824 96.8282 31.944C95.9775 31.0347 95.5522 29.6853 95.5522 27.896C95.5522 27.1627 95.6695 26.2093 95.9042 25.036L100.612 2.992L107.124 2.112L102.064 25.872C101.947 26.312 101.888 26.7373 101.888 27.148C101.888 28.3213 102.49 28.908 103.692 28.908C104.22 28.908 104.69 28.82 105.1 28.644C104.983 30.1107 104.455 31.2547 103.516 32.076C102.607 32.868 101.522 33.264 100.26 33.264Z" fill="white"/>
</svg>
